<svg width="17" height="17" viewBox="0 0 17 17" fill="none" xmlns="http://www.w3.org/2000/svg">
<mask id="mask0" mask-type="alpha" maskUnits="userSpaceOnUse" x="0" y="0" width="17" height="17">
<circle cx="8.16553" cy="8.51575" r="8" fill="#C4C4C4"/>
</mask>
<g mask="url(#mask0)">
<path d="M16.6086 0.515747H0.45884L0.165527 1.02249V15.6921C0.165527 16.147 0.414871 16.5157 0.722412 16.5157H16.8283L17.1655 16.1656V1.33947C17.1655 0.884493 16.9162 0.515747 16.6086 0.515747Z" fill="#F2F2F6"/>
<path d="M4.30151 7.66803C4.24588 7.66803 4.18943 7.65212 4.13974 7.61865C4.00664 7.52926 3.97117 7.34862 4.06055 7.21535L5.0326 5.76779C5.1217 5.63469 5.30249 5.59894 5.4359 5.68861C5.569 5.778 5.60447 5.95864 5.51508 6.09191L4.54304 7.53947C4.48712 7.62291 4.39516 7.66803 4.30151 7.66803Z" fill="#4B3F4E"/>
<path d="M3.3363 7.02007C3.28067 7.02007 3.22422 7.00416 3.17453 6.97069C3.04143 6.8813 3.00596 6.70066 3.09534 6.56739L4.06739 5.11983C4.15649 4.98701 4.33756 4.95084 4.47069 5.04065C4.60379 5.13003 4.63926 5.31068 4.54987 5.44395L3.57783 6.89151C3.52191 6.97491 3.42995 7.02007 3.3363 7.02007Z" fill="#5D5360"/>
<path d="M12.0222 12.8524C11.9666 12.8524 11.9101 12.8365 11.8604 12.803C11.7273 12.7136 11.6919 12.533 11.7813 12.3997L12.7533 10.9521C12.8424 10.8192 13.0235 10.7831 13.1566 10.873C13.2897 10.9623 13.3252 11.143 13.2358 11.2763L12.2637 12.7238C12.2078 12.8072 12.1159 12.8524 12.0222 12.8524Z" fill="#5D5360"/>
<path d="M11.057 12.2042C11.0014 12.2042 10.9449 12.1883 10.8952 12.1549C10.7621 12.0655 10.7267 11.8848 10.816 11.7516L11.7881 10.304C11.8772 10.1711 12.058 10.1349 12.1914 10.2248C12.3245 10.3142 12.36 10.4949 12.2706 10.6281L11.2985 12.0757C11.2426 12.1591 11.1507 12.2042 11.057 12.2042Z" fill="#4B3F4E"/>
<path d="M12.0296 7.66809C11.936 7.66809 11.8443 7.62297 11.7881 7.53953L10.816 6.09197C10.7267 5.95873 10.7621 5.77809 10.8952 5.68867C11.0283 5.59886 11.2088 5.63475 11.2985 5.76785L12.2706 7.21541C12.36 7.34865 12.3245 7.52929 12.1914 7.61871C12.1417 7.65218 12.0853 7.66809 12.0296 7.66809Z" fill="#4B3F4E"/>
<path d="M12.9948 7.01996C12.9012 7.01996 12.8095 6.97484 12.7533 6.8914L11.7813 5.44384C11.6919 5.3106 11.7273 5.12996 11.8604 5.04054C11.9935 4.95059 12.174 4.98662 12.2637 5.11972L13.2358 6.56728C13.3252 6.70052 13.2897 6.88116 13.1566 6.97058C13.1069 7.00405 13.0504 7.01996 12.9948 7.01996Z" fill="#5D5360"/>
<path d="M4.30891 12.8524C4.21526 12.8524 4.12359 12.8073 4.06739 12.7238L3.09534 11.2763C3.00596 11.143 3.04143 10.9624 3.17453 10.873C3.30762 10.783 3.48812 10.8189 3.57783 10.9522L4.54987 12.3997C4.63926 12.533 4.60379 12.7136 4.47069 12.803C4.42103 12.8365 4.36455 12.8524 4.30891 12.8524Z" fill="#5D5360"/>
<path d="M5.27412 12.2043C5.18047 12.2043 5.0888 12.1592 5.0326 12.0758L4.06055 10.6282C3.97117 10.495 4.00664 10.3143 4.13974 10.2249C4.27311 10.1348 4.45333 10.1711 4.54304 10.3041L5.51508 11.7516C5.60447 11.8849 5.569 12.0655 5.4359 12.1549C5.38621 12.1884 5.32972 12.2043 5.27412 12.2043Z" fill="#4B3F4E"/>
<path d="M10.3592 8.35873C9.69207 7.91591 8.48167 7.51507 8.03655 8.18277L5.75026 7.30994L5.74769 7.31011C5.43958 7.77141 5.2594 8.32544 5.2594 8.92181C5.2594 10.5269 6.56056 11.828 8.1656 11.828C9.17439 11.828 10.0626 11.3136 10.5837 10.5332L10.5829 10.5325C11.0287 9.86711 11.0275 8.80384 10.3592 8.35873Z" fill="#5055A0"/>
<path d="M5.74775 7.31006C5.30204 7.97544 5.48173 8.87956 6.14996 9.3247C6.81714 9.76753 7.71897 9.589 8.16408 8.9213C8.60923 8.25363 9.51046 8.07285 10.1776 8.51796C10.8453 8.9631 11.0267 9.86723 10.5804 10.5326L10.583 10.5324C10.8911 10.0711 11.0713 9.5171 11.0713 8.92073C11.0713 7.31569 9.77015 6.01453 8.1651 6.01453C7.15632 6.01453 6.26814 6.52893 5.74705 7.30932L5.74775 7.31006Z" fill="#E5646E"/>
</g>
</svg>
