<svg width="24" height="24" viewBox="0 0 24 24" fill="none" xmlns="http://www.w3.org/2000/svg">
<mask id="mask0" mask-type="alpha" maskUnits="userSpaceOnUse" x="3" y="5" width="16" height="16">
<circle cx="11" cy="13" r="8" fill="#C4C4C4"/>
</mask>
<g mask="url(#mask0)">
<path d="M18.4759 5H3.27606L3 5.50674V20.1763C3 20.6313 3.23468 21 3.52413 21H18.6827L19 20.6499V5.82372C19 5.36875 18.7653 5 18.4759 5Z" fill="#E5646E"/>
<path d="M14.4922 12.1618H11.7273L10.8728 9.74859C10.8145 9.5838 10.5604 9.5838 10.5022 9.74859L9.64771 12.1618H6.88276C6.69395 12.1618 6.61548 12.3835 6.76822 12.4854L9.00509 13.9768L8.15069 16.3901C8.09236 16.5549 8.29785 16.6919 8.45058 16.59L10.6875 15.0985L12.9244 16.59C13.0771 16.6919 13.2826 16.5548 13.2243 16.3901L12.3699 13.9768L14.6068 12.4854C14.7595 12.3835 14.681 12.1618 14.4922 12.1618Z" fill="#FFE07D"/>
</g>
</svg>
