<svg width="25" height="24" viewBox="0 0 25 24" fill="none" xmlns="http://www.w3.org/2000/svg">
<mask id="mask0" mask-type="alpha" maskUnits="userSpaceOnUse" x="3" y="5" width="17" height="16">
<circle cx="11.3572" cy="13" r="8" fill="#C4C4C4"/>
</mask>
<g mask="url(#mask0)">
<path d="M20.9344 4H13.4763L12.7475 4.56609H10.561L9.83213 4H2.37398L0.7323 4.72883V21.1286H21.5244L22.9512 20.2171V15.1105L22.3665 14.3816V12.1951L22.9512 11.4663V5.30114L20.9344 4Z" fill="#5055A0"/>
<path d="M22.2754 6.0022L21.3791 6.20012L1.19885 19.1686L2.53883 20.0359L22.7269 6.98892L22.9006 6.46643C22.8009 6.21004 22.5618 6.02281 22.2754 6.0022Z" fill="#E5646E"/>
<path d="M1.87963 6.15058L1.09908 6.01819C0.696538 6.01819 0.49231 6.40374 0.49231 6.80629V6.9449L21.4618 20.4263L22.885 19.6816L1.87963 6.15058Z" fill="#E5646E"/>
<path d="M22.9511 12.1951L13.1118 11.8307L12.7474 5H10.5609L10.1965 11.8307H0.721191V14.7461H10.1965V21.1727H13.1118V14.7461L22.9511 14.3816V12.1951Z" fill="#E5646E"/>
<path d="M22.9512 14.3816H13.1119C12.9106 14.3816 12.7474 14.5447 12.7474 14.746V19.8479L13.0912 20.1917L13.4763 19.8479V15.7649L19.8048 19.8478L21.0579 20.2256L21.1492 19.8478L13.8061 15.1105H15.1508L22.4938 19.8479L22.8409 19.9849L22.9512 19.8479V19.2757L16.4951 15.1104H22.9512V14.3816Z" fill="#F2F2F6"/>
<path d="M10.1965 14.3816H1.08596L0.721191 14.746L1.08596 15.1104H6.81319L1.32218 18.6531L1.05216 19.2384L1.75994 19.2379L8.15753 15.1104H9.50219L2.42395 19.677L2.52496 20.1007L3.50348 19.8479L9.83205 15.765V21.7307L10.1832 22.07L10.5609 21.7307V14.746C10.5609 14.5447 10.3977 14.3816 10.1965 14.3816Z" fill="#F2F2F6"/>
<path d="M9.83205 5V10.8117L2.37391 6H1.08596C1.06928 6 1.04739 6.00132 1.03098 6.00243L9.50223 11.4663H8.15749L1.08596 6.90403L0.857241 7.22798L1.08596 7.77134L6.81315 11.4663H1.08596L0.721191 11.8307L1.08596 12.1951H10.1965C10.3977 12.1951 10.5609 12.0319 10.5609 11.8307V5H9.83205Z" fill="#F2F2F6"/>
<path d="M22.9512 6.72883C22.9512 6.63608 22.9322 6.54813 22.9005 6.46649L15.1508 11.4663H13.806L22.2754 6.00225C22.259 6.00115 22.239 6 22.2224 6H20.9344L13.4763 10.8117V5H12.7474V11.8307C12.7474 12.0319 12.9106 12.1951 13.1119 12.1951H22.9512V11.4663H16.4952L22.9512 7.30114V6.72883Z" fill="#F2F2F6"/>
<path d="M9.83215 19.8479H10.561V21.5182H9.83215V19.8479Z" fill="#E1E1E6"/>
<path d="M12.7474 19.8479H13.4763V20.5767H12.7474V19.8479Z" fill="#E1E1E6"/>
<path d="M2.37388 20.5767L3.50358 19.8479H3.27261C2.97165 19.8479 2.68499 19.7869 2.4241 19.677L1.03271 20.5745C1.04917 20.5756 1.06939 20.5767 1.08611 20.5767H2.37388Z" fill="#E1E1E6"/>
<path d="M12.7474 19.8479H13.4763V21.5182H12.7474V19.8479Z" fill="#E1E1E6"/>
</g>
</svg>
