<svg width="93" height="93" viewBox="0 0 93 93" fill="none" xmlns="http://www.w3.org/2000/svg">
<g filter="url(#filter0_d)">
<circle cx="46.7654" cy="42.917" r="29" fill="white" stroke="#DEBC65" stroke-width="2"/>
<path d="M33.4152 55.438H32.8152V59.4878H33.4152V55.438Z" fill="#9E9E9E"/>
<path d="M35.6152 55.2358V59.4882H36.2152V56.8052L39.1152 59.6907V55.4383H38.5152V58.1214L35.6152 55.2358Z" fill="#9E9E9E"/>
<path d="M41.3652 59.4372H41.9652V57.7667H43.6152V57.1086H41.9652V56.0455H43.6152V55.438H41.3652V59.4372Z" fill="#9E9E9E"/>
<path d="M54.5653 55.438H53.9653V59.4878H54.5653V55.438Z" fill="#9E9E9E"/>
<path d="M56.3655 56.0455H57.4655V59.4372H58.0655V56.0455H59.1155V55.438H56.3655V56.0455Z" fill="#9E9E9E"/>
<path d="M62.9154 55.438L62.0154 56.8048C61.9654 56.9061 61.9154 57.0073 61.8654 57.1592C61.7654 56.9567 61.7154 56.8554 61.7154 56.8554L60.8654 55.4886H60.1654L61.5154 57.716V59.5385H62.1154V57.716L63.5654 55.4886H62.9154V55.438Z" fill="#9E9E9E"/>
<path d="M49.2652 55.9446C49.1652 56.0458 49.1152 56.1471 49.0152 56.2483C48.9652 56.1471 48.8652 56.0458 48.7652 55.9446C48.3652 55.5396 47.8152 55.2865 47.2652 55.2865C46.7152 55.2865 46.1652 55.489 45.7652 55.8939C45.3652 56.2989 45.1652 56.8052 45.1652 57.362C45.1652 57.9189 45.3652 58.4757 45.7652 58.8301C46.1652 59.2351 46.7152 59.4376 47.2652 59.4376C47.8152 59.4376 48.3652 59.1845 48.7652 58.7795C48.8652 58.6782 48.9152 58.6276 48.9652 58.5263C49.0152 58.6276 49.1152 58.7288 49.2152 58.8301C49.6152 59.2351 50.1152 59.4376 50.7152 59.4376C51.2152 59.4376 51.6652 59.3363 51.9652 59.0832V58.3239C51.5152 58.6782 51.1652 58.8301 50.6652 58.8301C49.9652 58.8301 49.4652 58.3745 49.3152 57.6658H48.6152C48.5652 57.9189 48.4152 58.172 48.2152 58.3745C47.9152 58.6782 47.5652 58.8301 47.2152 58.8301C46.8152 58.8301 46.4652 58.6782 46.1652 58.3745C45.8652 58.0707 45.7652 57.7164 45.7652 57.3114C45.7652 56.9064 45.9152 56.552 46.1652 56.2483C46.4652 55.9446 46.8152 55.7927 47.2152 55.7927C47.6152 55.7927 47.9652 55.9952 48.2152 56.2483C48.4152 56.4508 48.5152 56.7039 48.6152 57.0077H49.3152C49.4652 56.2989 50.0152 55.8433 50.7652 55.8433C51.2152 55.8433 51.6152 55.9952 51.9652 56.2989L52.0152 55.6408C51.6152 55.3877 51.2152 55.2358 50.7152 55.2358C50.1652 55.3371 49.6652 55.5396 49.2652 55.9446Z" fill="#9E9E9E"/>
<path d="M37.9583 29.9088V47.0268C36.6101 46.9287 56.383 48.1549 58.0807 44.0839C59.5786 40.5524 43.5007 40.6995 43.5007 40.6995C43.5007 40.6995 51.6894 35.9908 38.7572 35.9418V34.4703C44.9986 34.2251 51.5396 35.3041 48.2941 39.0318C48.2941 39.0318 63.5232 39.179 63.5232 44.4763C63.5232 48.9888 54.0362 51.8826 32.7654 51.8826V25.9849C32.8652 25.9849 37.9583 26.1811 37.9583 29.9088Z" fill="#C5A55A"/>
<path d="M37.9583 29.9088V47.0268C36.6101 46.9287 56.383 48.1549 58.0807 44.0839C59.5786 40.5524 43.5007 40.6995 43.5007 40.6995C43.5007 40.6995 51.6894 35.9908 38.7572 35.9418V34.4703C44.9986 34.2251 51.5396 35.3041 48.2941 39.0318C48.2941 39.0318 63.5232 39.179 63.5232 44.4763C63.5232 48.9888 54.0362 51.8826 32.7654 51.8826V25.9849C32.8652 25.9849 37.9583 26.1811 37.9583 29.9088Z" fill="#C5A55A"/>
<circle cx="66.3654" cy="23.3168" r="6.6" fill="#225DC0" stroke="white" stroke-width="2"/>
</g>
<defs>
<filter id="filter0_d" x="0.765381" y="0.916992" width="92" height="92" filterUnits="userSpaceOnUse" color-interpolation-filters="sRGB">
<feFlood flood-opacity="0" result="BackgroundImageFix"/>
<feColorMatrix in="SourceAlpha" type="matrix" values="0 0 0 0 0 0 0 0 0 0 0 0 0 0 0 0 0 0 127 0"/>
<feOffset dy="4"/>
<feGaussianBlur stdDeviation="8"/>
<feColorMatrix type="matrix" values="0 0 0 0 0 0 0 0 0 0 0 0 0 0 0 0 0 0 0.1 0"/>
<feBlend mode="normal" in2="BackgroundImageFix" result="effect1_dropShadow"/>
<feBlend mode="normal" in="SourceGraphic" in2="effect1_dropShadow" result="shape"/>
</filter>
</defs>
</svg>
