<svg width="16" height="17" viewBox="0 0 16 17" fill="none" xmlns="http://www.w3.org/2000/svg">
<path fill-rule="evenodd" clip-rule="evenodd" d="M14.6667 5.02318H6.66671C6.44579 5.02318 6.26671 5.20226 6.26671 5.42318V15.601H15.0667V5.42318C15.0667 5.20226 14.8876 5.02318 14.6667 5.02318ZM6.66671 4.08984C5.93033 4.08984 5.33337 4.6868 5.33337 5.42318V16.5343H16V5.42318C16 4.6868 15.4031 4.08984 14.6667 4.08984H6.66671Z" fill="white"/>
<path d="M8 6.75647H9.77778V8.53425H8V6.75647Z" fill="white"/>
<path d="M4.44446 6.75647H6.22224V8.53425H4.44446V6.75647Z" fill="white"/>
<path d="M2.66663 10.3121H4.4444V12.0899H2.66663V10.3121Z" fill="white"/>
<path d="M2.66663 13.8676H4.4444V15.6453H2.66663V13.8676Z" fill="white"/>
<path d="M8 10.3121H9.77778V12.0899H8V10.3121Z" fill="white"/>
<path d="M8 13.8676H9.77778V15.6453H8V13.8676Z" fill="white"/>
<path d="M11.5557 6.75647H13.3334V8.53425H11.5557V6.75647Z" fill="white"/>
<path d="M11.5557 10.3121H13.3334V12.0899H11.5557V10.3121Z" fill="white"/>
<path d="M11.5557 13.8676H13.3334V15.6453H11.5557V13.8676Z" fill="white"/>
<path fill-rule="evenodd" clip-rule="evenodd" d="M3.55561 1.77869H10.6667C10.9613 1.77869 11.2001 2.01747 11.2001 2.31202V4.08981H12.4445V2.31202C12.4445 1.33018 11.6486 0.534241 10.6667 0.534241H3.55561C2.57377 0.534241 1.77783 1.33018 1.77783 2.31202V8.8898H5.33339V7.64535H3.02228V2.31202C3.02228 2.01747 3.26106 1.77869 3.55561 1.77869Z" fill="white"/>
<path d="M4.44446 3.20105H6.22224V4.97883H4.44446V3.20105Z" fill="white"/>
<path d="M8 3.20105H9.77778V4.97883H8V3.20105Z" fill="white"/>
<path fill-rule="evenodd" clip-rule="evenodd" d="M5.33333 7.64545H1.77778C0.795938 7.64545 0 8.44138 0 9.42322V16.5343H10.6667V16.5343H5.33333V15.2899H1.24444V9.42322C1.24444 9.12867 1.48323 8.88989 1.77778 8.88989H5.33333V7.64545Z" fill="white"/>
</svg>
