<svg width="17" height="16" viewBox="0 0 17 16" fill="none" xmlns="http://www.w3.org/2000/svg">
<path d="M0.5 3.8673C0.5 3.30354 0.816112 2.78738 1.31829 2.53116L3.62599 1.35377C4.0542 1.13529 4.56118 1.13529 4.9894 1.35377L7.29709 2.53116C7.79927 2.78738 8.11538 3.30354 8.11538 3.8673V15.3293H0.5V3.8673Z" stroke="white"/>
<path d="M8.16589 5.25232H14.2813C15.1097 5.25232 15.7813 5.92389 15.7813 6.75232V15.3292H8.16589V5.25232Z" stroke="white"/>
<rect x="2.46155" y="4.75232" width="1.23077" height="1.23077" fill="white"/>
<rect x="2.46155" y="9.67542" width="1.23077" height="1.23077" fill="white"/>
<rect x="9.84619" y="9.67542" width="1.23077" height="1.23077" fill="white"/>
<rect x="9.84619" y="7.21387" width="1.23077" height="1.23077" fill="white"/>
<rect x="2.46155" y="7.21387" width="1.23077" height="1.23077" fill="white"/>
<rect x="2.46155" y="12.1369" width="1.23077" height="1.23077" fill="white"/>
<rect x="9.84619" y="12.1369" width="1.23077" height="1.23077" fill="white"/>
<rect x="4.9231" y="4.75232" width="1.23077" height="1.23077" fill="white"/>
<rect x="4.9231" y="9.67542" width="1.23077" height="1.23077" fill="white"/>
<rect x="12.3077" y="9.67542" width="1.23077" height="1.23077" fill="white"/>
<rect x="12.3077" y="7.21387" width="1.23077" height="1.23077" fill="white"/>
<rect x="4.9231" y="7.21387" width="1.23077" height="1.23077" fill="white"/>
<rect x="4.9231" y="12.1369" width="1.23077" height="1.23077" fill="white"/>
<rect x="12.3077" y="12.1369" width="1.23077" height="1.23077" fill="white"/>
</svg>
