<svg width="14" height="14" viewBox="0 0 14 14" fill="none" xmlns="http://www.w3.org/2000/svg">
<path d="M5.625 10.2083V13.5H0.5V4.25C0.5 3.64445 0.864106 3.09829 1.42308 2.86538L6.42308 0.782052C6.79231 0.628205 7.20769 0.628205 7.57692 0.782051L12.5769 2.86538C13.1359 3.09829 13.5 3.64445 13.5 4.25V13.5H8.375V10.2083V9.70833H7.875H6.125H5.625V10.2083Z" stroke="white"/>
<rect x="2.33325" y="4.66663" width="2.33333" height="1.16667" fill="white"/>
<rect x="2.33325" y="6.99994" width="2.33333" height="1.16667" fill="white"/>
<rect x="2.33325" y="9.33331" width="2.33333" height="1.16667" fill="white"/>
<rect x="5.83337" y="4.66663" width="2.33333" height="1.16667" fill="white"/>
<rect x="5.83337" y="6.99994" width="2.33333" height="1.16667" fill="white"/>
<rect x="9.33337" y="4.66663" width="2.33333" height="1.16667" fill="white"/>
<rect x="9.33337" y="6.99994" width="2.33333" height="1.16667" fill="white"/>
<rect x="9.33337" y="9.33331" width="2.33333" height="1.16667" fill="white"/>
</svg>
