<svg width="27" height="18" viewBox="0 0 27 18" fill="none" xmlns="http://www.w3.org/2000/svg">
<path d="M25.9342 0.820312H1.25391L0.805664 1.34389V16.5009C0.805664 16.9709 1.18671 17.3519 1.6567 17.3519H26.2699L26.7852 16.9902V1.6714C26.7852 1.20131 26.4042 0.820312 25.9342 0.820312Z" fill="#F2F2F6"/>
<path d="M1.25387 14.437V0.820312C0.783881 0.820312 0.402832 1.20131 0.402832 1.67135V16.9901C0.402832 17.4601 0.783881 17.8411 1.25387 17.8411H25.9341C26.4041 17.8411 26.7852 17.4601 26.7852 16.9901H3.80703C2.39697 16.9901 1.25387 15.8471 1.25387 14.437Z" fill="#E1E1E6"/>
<path d="M7.93638 7.49506C7.85492 7.49506 7.77227 7.47177 7.69951 7.42276C7.50463 7.29188 7.45269 7.02739 7.58357 6.83225L9.00683 4.71275C9.13729 4.51787 9.40199 4.46552 9.59734 4.59681C9.79222 4.72769 9.84416 4.99219 9.71327 5.18732L8.29002 7.30682C8.20814 7.429 8.0735 7.49506 7.93638 7.49506Z" fill="#4B3F4E"/>
<path d="M6.52305 6.54631C6.44159 6.54631 6.35894 6.52302 6.28618 6.47402C6.0913 6.34313 6.03936 6.07864 6.17024 5.8835L7.5935 3.764C7.72396 3.56954 7.98908 3.51657 8.18401 3.64807C8.37888 3.77895 8.43082 4.04344 8.29994 4.23858L6.87669 6.35808C6.79481 6.4802 6.66017 6.54631 6.52305 6.54631Z" fill="#5D5360"/>
<path d="M19.2409 15.0859C19.1595 15.0859 19.0768 15.0626 19.0041 15.0136C18.8092 14.8827 18.7573 14.6182 18.8881 14.4231L20.3114 12.3036C20.4419 12.1089 20.707 12.0562 20.9019 12.1877C21.0968 12.3186 21.1487 12.583 21.0178 12.7782L19.5946 14.8977C19.5127 15.0198 19.3781 15.0859 19.2409 15.0859Z" fill="#5D5360"/>
<path d="M17.8276 14.1373C17.7462 14.1373 17.6635 14.114 17.5907 14.065C17.3959 13.9341 17.3439 13.6696 17.4748 13.4745L18.8981 11.355C19.0285 11.1603 19.2932 11.1073 19.4886 11.239C19.6834 11.3699 19.7354 11.6344 19.6045 11.8295L18.1813 13.949C18.0994 14.0712 17.9648 14.1373 17.8276 14.1373Z" fill="#4B3F4E"/>
<path d="M19.2517 7.49515C19.1146 7.49515 18.9804 7.42909 18.8981 7.30692L17.4748 5.18742C17.3439 4.99233 17.3959 4.72784 17.5907 4.5969C17.7856 4.46541 18.0499 4.51796 18.1813 4.71284L19.6045 6.83234C19.7354 7.02743 19.6834 7.29192 19.4886 7.42285C19.4159 7.47186 19.3332 7.49515 19.2517 7.49515Z" fill="#4B3F4E"/>
<path d="M20.665 6.54602C20.5279 6.54602 20.3937 6.47996 20.3114 6.35779L18.8881 4.23829C18.7573 4.0432 18.8092 3.77871 19.0041 3.64778C19.199 3.51607 19.4632 3.56884 19.5946 3.76371L21.0178 5.88321C21.1487 6.0783 21.0968 6.34279 20.9019 6.47373C20.8291 6.52273 20.7464 6.54602 20.665 6.54602Z" fill="#5D5360"/>
<path d="M7.94713 15.0856C7.81002 15.0856 7.67579 15.0196 7.5935 14.8974L6.17024 12.7779C6.03936 12.5828 6.0913 12.3183 6.28618 12.1874C6.48106 12.0557 6.74534 12.1082 6.87669 12.3033L8.29994 14.4228C8.43082 14.6179 8.37888 14.8824 8.18401 15.0133C8.1113 15.0623 8.0286 15.0856 7.94713 15.0856Z" fill="#5D5360"/>
<path d="M9.36046 14.1369C9.22335 14.1369 9.08912 14.0708 9.00683 13.9486L7.58357 11.8291C7.45269 11.6341 7.50463 11.3696 7.69951 11.2386C7.8948 11.1067 8.15868 11.1599 8.29002 11.3546L9.71327 13.4741C9.84416 13.6692 9.79222 13.9336 9.59734 14.0646C9.52458 14.1136 9.44188 14.1369 9.36046 14.1369Z" fill="#4B3F4E"/>
<path d="M16.8059 8.50634C15.829 7.85796 14.0567 7.27106 13.405 8.2487L10.0575 6.9707L10.0537 6.97096C9.60257 7.64639 9.33875 8.45759 9.33875 9.33079C9.33875 11.6809 11.2439 13.586 13.594 13.586C15.071 13.586 16.3715 12.8328 17.1345 11.6902L17.1334 11.6891C17.786 10.7149 17.7843 9.15807 16.8059 8.50634Z" fill="#5055A0"/>
<path d="M10.0538 6.97112C9.40117 7.94536 9.66428 9.26916 10.6427 9.92094C11.6196 10.5693 12.94 10.3079 13.5917 9.33028C14.2435 8.35269 15.5631 8.08799 16.5399 8.73971C17.5176 9.39149 17.7831 10.7153 17.1297 11.6895L17.1335 11.6893C17.5846 11.0138 17.8485 10.2026 17.8485 9.32945C17.8485 6.97936 15.9433 5.07422 13.5932 5.07422C12.1162 5.07422 10.8157 5.8274 10.0527 6.97004L10.0538 6.97112Z" fill="#E5646E"/>
</svg>
