<svg width="27" height="18" viewBox="0 0 27 18" fill="none" xmlns="http://www.w3.org/2000/svg">
<path d="M25.5313 0.469727H0.851074L0.402832 0.993303V16.1503C0.402832 16.6203 0.783882 17.0013 1.25387 17.0013H25.8671L26.3824 16.6396V1.32081C26.3824 0.850725 26.0013 0.469727 25.5313 0.469727Z" fill="#E5646E"/>
<path d="M0.851036 14.0864V0.469727C0.381049 0.469727 0 0.850725 0 1.32076V16.6395C0 17.1096 0.381049 17.4906 0.851036 17.4906H25.5313C26.0013 17.4906 26.3823 17.1095 26.3823 16.6395H3.4042C1.99413 16.6395 0.851036 15.4965 0.851036 14.0864Z" fill="#DB4655"/>
<path d="M18.1753 7.64016H14.5533L13.434 4.19546C13.3576 3.96024 13.0247 3.96024 12.9484 4.19546L11.8291 7.64016H8.20708C7.95975 7.64016 7.85695 7.95664 8.05703 8.10206L10.9873 10.231L9.86803 13.6758C9.79162 13.911 10.0608 14.1066 10.2609 13.9612L13.1912 11.8322L16.1214 13.9612C16.3215 14.1066 16.5907 13.911 16.5143 13.6758L15.3951 10.231L18.3253 8.10206C18.5254 7.9567 18.4226 7.64016 18.1753 7.64016Z" fill="#FFE07D"/>
</svg>
