<svg width="64" height="64" viewBox="0 0 64 64" fill="none" xmlns="http://www.w3.org/2000/svg">
<circle cx="32" cy="32" r="32" fill="#FFE7E7"/>
<path d="M40.9964 37.8668L26.1342 23.0046C25.486 22.3564 24.4351 22.3564 23.7879 23.0046L23.0047 23.7867C22.3565 24.4351 22.3565 25.486 23.0047 26.1331L37.8669 40.9953C38.5152 41.6435 39.5661 41.6435 40.2133 40.9953L40.9954 40.2132C41.6448 39.5661 41.6448 38.515 40.9964 37.8668Z" fill="#F44336"/>
<path d="M37.8668 23.0047L23.0047 37.8669C22.3565 38.515 22.3565 39.5661 23.0047 40.2133L23.7867 40.9954C24.4351 41.6435 25.486 41.6435 26.1331 40.9954L40.9963 26.1342C41.6447 25.486 41.6447 24.4351 40.9963 23.7879L40.2143 23.0059C39.5661 22.3565 38.5152 22.3565 37.8668 23.0047Z" fill="#F44336"/>
</svg>
