<svg width="56" height="62" viewBox="0 0 56 62" fill="none" xmlns="http://www.w3.org/2000/svg">
<path d="M1.80303 53.4863H0.72522V60.7613H1.80303V53.4863Z" fill="#9E9E9E"/>
<path d="M5.75497 53.1221V60.7608H6.83279V55.9411L12.0422 61.1245V53.4858H10.9644V58.3055L5.75497 53.1221Z" fill="#9E9E9E"/>
<path d="M16.084 60.6696H17.1618V57.6687H20.1258V56.4865H17.1618V54.5768H20.1258V53.4856H16.084V60.6696Z" fill="#9E9E9E"/>
<path d="M39.7959 53.4856H38.7181V60.7606H39.7959V53.4856Z" fill="#9E9E9E"/>
<path d="M43.0294 54.5768H45.0054V60.6696H46.0832V54.5768H47.9694V53.4856H43.0294V54.5768Z" fill="#9E9E9E"/>
<path d="M54.7955 53.4856L53.1788 55.9409C53.0889 56.1228 52.9991 56.3046 52.9093 56.5775C52.7297 56.2137 52.6399 56.0318 52.6399 56.0318L51.1129 53.5765H49.8555L52.2806 57.5778V60.8515H53.3584V57.5778L55.9631 53.5765H54.7955V53.4856Z" fill="#9E9E9E"/>
<path d="M30.2752 54.3952C30.0955 54.5771 30.0057 54.7589 29.8261 54.9408C29.7363 54.7589 29.5566 54.5771 29.377 54.3952C28.6585 53.6677 27.6705 53.213 26.6825 53.213C25.6945 53.213 24.7065 53.5768 23.9879 54.3043C23.2694 55.0318 22.9101 55.9411 22.9101 56.9414C22.9101 57.9417 23.2694 58.9421 23.9879 59.5786C24.7065 60.3061 25.6945 60.6699 26.6825 60.6699C27.6705 60.6699 28.6585 60.2152 29.377 59.4877C29.5566 59.3058 29.6465 59.2149 29.7363 59.033C29.8261 59.2149 30.0057 59.3967 30.1854 59.5786C30.9039 60.3061 31.8021 60.6699 32.8799 60.6699C33.7781 60.6699 34.5864 60.488 35.1253 60.0333V58.6692C34.317 59.3058 33.6883 59.5786 32.7901 59.5786C31.5326 59.5786 30.6345 58.7602 30.365 57.4871H29.1076C29.0177 57.9417 28.7483 58.3964 28.389 58.7602C27.8501 59.3058 27.2214 59.5786 26.5927 59.5786C25.8741 59.5786 25.2454 59.3058 24.7065 58.7602C24.1676 58.2146 23.9879 57.578 23.9879 56.8505C23.9879 56.123 24.2574 55.4864 24.7065 54.9408C25.2454 54.3952 25.8741 54.1224 26.5927 54.1224C27.3112 54.1224 27.9399 54.4861 28.389 54.9408C28.7483 55.3046 28.9279 55.7592 29.1076 56.3049H30.365C30.6345 55.0318 31.6224 54.2133 32.9697 54.2133C33.7781 54.2133 34.4966 54.4861 35.1253 55.0318L35.2152 53.8496C34.4966 53.3949 33.7781 53.1221 32.8799 53.1221C31.8919 53.3039 30.9937 53.6677 30.2752 54.3952Z" fill="#9E9E9E"/>
<path d="M9.96366 7.62587V38.3759C7.5419 38.1997 43.061 40.4024 46.1106 33.0894C48.8015 26.7455 19.9198 27.0098 19.9198 27.0098C19.9198 27.0098 34.6297 18.5514 11.3988 18.4633V15.82C22.6106 15.3795 34.3606 17.3179 28.5305 24.0141C28.5305 24.0141 55.8874 24.2785 55.8874 33.7942C55.8874 41.9003 38.8454 47.0987 0.635406 47.0987V0.577148C0.814796 0.577148 9.96366 0.929584 9.96366 7.62587Z" fill="#C5A55A"/>
<path d="M9.96366 7.62587V38.3759C7.5419 38.1997 43.061 40.4024 46.1106 33.0894C48.8015 26.7455 19.9198 27.0098 19.9198 27.0098C19.9198 27.0098 34.6297 18.5514 11.3988 18.4633V15.82C22.6106 15.3795 34.3606 17.3179 28.5305 24.0141C28.5305 24.0141 55.8874 24.2785 55.8874 33.7942C55.8874 41.9003 38.8454 47.0987 0.635406 47.0987V0.577148C0.814796 0.577148 9.96366 0.929584 9.96366 7.62587Z" fill="#C5A55A"/>
</svg>
