<svg width="37" height="41" viewBox="0 0 37 41" fill="none" xmlns="http://www.w3.org/2000/svg">
<path d="M0.770366 35.4816H0.0593262V40.2809H0.770366V35.4816Z" fill="#9E9E9E"/>
<path d="M3.37744 35.2413V40.2806H4.08848V37.1011L7.52517 40.5206V35.4813H6.81413V38.6609L3.37744 35.2413Z" fill="#9E9E9E"/>
<path d="M10.1917 40.2205H10.9027V38.2408H12.858V37.4609H10.9027V36.2011H12.858V35.4812H10.1917V40.2205Z" fill="#9E9E9E"/>
<path d="M25.8346 35.4812H25.1235V40.2805H25.8346V35.4812Z" fill="#9E9E9E"/>
<path d="M27.9675 36.2011H29.2711V40.2205H29.9821V36.2011H31.2265V35.4812H27.9675V36.2011Z" fill="#9E9E9E"/>
<path d="M35.7299 35.4812L34.6633 37.101C34.6041 37.221 34.5448 37.3409 34.4856 37.5209C34.3671 37.281 34.3078 37.161 34.3078 37.161L33.3005 35.5412H32.4709L34.0708 38.1808V40.3405H34.7818V38.1808L36.5002 35.5412H35.7299V35.4812Z" fill="#9E9E9E"/>
<path d="M19.5536 36.0812C19.4351 36.2012 19.3758 36.3212 19.2573 36.4412C19.1981 36.3212 19.0796 36.2012 18.9611 36.0812C18.487 35.6013 17.8352 35.3013 17.1835 35.3013C16.5317 35.3013 15.8799 35.5413 15.4059 36.0212C14.9318 36.5012 14.6948 37.1011 14.6948 37.761C14.6948 38.4209 14.9318 39.0808 15.4059 39.5007C15.8799 39.9807 16.5317 40.2207 17.1835 40.2207C17.8352 40.2207 18.487 39.9207 18.9611 39.4408C19.0796 39.3208 19.1388 39.2608 19.1981 39.1408C19.2573 39.2608 19.3758 39.3808 19.4943 39.5007C19.9684 39.9807 20.5609 40.2207 21.2719 40.2207C21.8645 40.2207 22.3977 40.1007 22.7533 39.8007V38.9008C22.22 39.3208 21.8052 39.5007 21.2127 39.5007C20.3831 39.5007 19.7906 38.9608 19.6128 38.1209H18.7833C18.724 38.4209 18.5463 38.7209 18.3093 38.9608C17.9538 39.3208 17.539 39.5007 17.1242 39.5007C16.6502 39.5007 16.2354 39.3208 15.8799 38.9608C15.5244 38.6009 15.4059 38.1809 15.4059 37.701C15.4059 37.2211 15.5836 36.8011 15.8799 36.4412C16.2354 36.0812 16.6502 35.9012 17.1242 35.9012C17.5982 35.9012 18.013 36.1412 18.3093 36.4412C18.5463 36.6811 18.6648 36.9811 18.7833 37.341H19.6128C19.7906 36.5012 20.4424 35.9612 21.3312 35.9612C21.8645 35.9612 22.3385 36.1412 22.7533 36.5012L22.8125 35.7213C22.3385 35.4213 21.8645 35.2413 21.2719 35.2413C20.6202 35.3613 20.0276 35.6013 19.5536 36.0812Z" fill="#9E9E9E"/>
<path d="M6.1539 5.22723V25.5132C4.55625 25.3969 27.9884 26.8501 30.0003 22.0256C31.7754 17.8406 12.722 18.0149 12.722 18.0149C12.722 18.0149 22.4262 12.4348 7.10065 12.3767V10.6329C14.4972 10.3423 22.2487 11.6211 18.4025 16.0387C18.4025 16.0387 36.45 16.213 36.45 22.4906C36.45 27.8382 25.2073 31.2677 0 31.2677V0.577148C0.118344 0.577148 6.1539 0.809652 6.1539 5.22723Z" fill="#C5A55A"/>
<path d="M6.1539 5.22723V25.5132C4.55625 25.3969 27.9884 26.8501 30.0003 22.0256C31.7754 17.8406 12.722 18.0149 12.722 18.0149C12.722 18.0149 22.4262 12.4348 7.10065 12.3767V10.6329C14.4972 10.3423 22.2487 11.6211 18.4025 16.0387C18.4025 16.0387 36.45 16.213 36.45 22.4906C36.45 27.8382 25.2073 31.2677 0 31.2677V0.577148C0.118344 0.577148 6.1539 0.809652 6.1539 5.22723Z" fill="#C5A55A"/>
</svg>
