<svg width="31" height="25" viewBox="0 0 31 25" fill="none" xmlns="http://www.w3.org/2000/svg">
<path d="M14.1997 10.1005C14.3894 9.86136 14.678 9.72192 14.9832 9.72192H28.4306C29.2671 9.72192 29.7339 10.6879 29.2141 11.3433L19.3003 23.8433C19.1106 24.0825 18.822 24.2219 18.5168 24.2219H5.06943C4.23289 24.2219 3.76611 23.256 4.28593 22.6005L14.1997 10.1005Z" fill="#F6E9CA"/>
<path d="M11.9832 0.721924C11.5253 0.721924 11.0925 0.931072 10.808 1.28983L0.894185 13.7898C0.114448 14.773 0.814614 16.2219 2.06943 16.2219H15.5168C15.9747 16.2219 16.4075 16.0128 16.692 15.654L26.6058 3.15402C27.3856 2.17087 26.6854 0.721924 25.4306 0.721924H11.9832Z" fill="#DEBC65" stroke="white"/>
</svg>
