<svg width="14" height="13" viewBox="0 0 14 13" fill="none" xmlns="http://www.w3.org/2000/svg">
<path d="M7.11829 11.0891L7.11835 11.089L13.4868 2.45181L13.4869 2.45179C13.9284 1.85315 13.8011 1.01 13.2026 0.568542C12.6033 0.126929 11.7601 0.254549 11.319 0.85331L11.3189 0.853385L5.91437 8.18359L5.91315 8.18523C5.83496 8.28947 5.71354 8.35695 5.5785 8.36348M7.11829 11.0891L5.41279 8.05L5.22683 8.21709C5.22687 8.21713 5.2269 8.21717 5.22694 8.21721C5.31676 8.31709 5.44629 8.3699 5.5785 8.36348M7.11829 11.0891C6.79534 11.5274 6.29235 11.7969 5.74829 11.8237L5.74817 11.8237C5.20439 11.8508 4.6777 11.6316 4.31325 11.2269L4.31318 11.2268L0.596712 7.10252L0.59666 7.10247C0.0985325 6.55002 0.142691 5.69837 0.695193 5.20011L7.11829 11.0891ZM5.5785 8.36348L5.56642 8.11378L5.57857 8.36348C5.57855 8.36348 5.57853 8.36348 5.5785 8.36348ZM2.59768 5.29923L2.78339 5.13186L2.59766 5.29921C2.59767 5.29922 2.59767 5.29923 2.59768 5.29923Z" fill="#DEBC65" stroke="white" stroke-width="0.5"/>
</svg>
